<svg xmlns="http://www.w3.org/2000/svg" viewBox="0 0 99.24 26.58"><defs><style>.a{fill:#231f20;}</style></defs><title>Asset 1</title><path class="a" d="M13.14,0A13.14,13.14,0,1,0,26.28,13.14,13.16,13.16,0,0,0,13.14,0Zm0,3.4a9.77,9.77,0,0,1,8.22,4.52L7.87,8c-1,0-2,0-3,0A9.73,9.73,0,0,1,13.14,3.4ZM3.4,13.14a9.73,9.73,0,0,1,.78-3.82l10,3.24.55.18-.31.7Q12.65,18,10.81,22.59A9.75,9.75,0,0,1,3.4,13.14Zm9.74,9.74c-.22,0-.43,0-.64,0l10.11-12a9.91,9.91,0,0,1,.27,2.26A9.75,9.75,0,0,1,13.14,22.88Z"/><path class="a" d="M34.8.62a2.32,2.32,0,0,0-1.73.7,2.34,2.34,0,0,0-.7,1.73A2.38,2.38,0,0,0,34.8,5.48a2.33,2.33,0,0,0,1.7-.69,2.4,2.4,0,0,0,.7-1.74,2.38,2.38,0,0,0-.7-1.73A2.3,2.3,0,0,0,34.8.62Z"/><polygon class="a" points="38.36 11.02 46.73 11.02 38.36 23.18 38.36 26.28 51.09 26.28 51.09 23.18 42.76 23.18 51.09 11.02 51.09 7.92 38.36 7.92 38.36 11.02"/><path class="a" d="M59.3,22.66a2,2,0,0,1-.48-1.48V11h4.47V7.92H58.82V3.35H55V7.92H52.82V11H55V21.18a5,5,0,0,0,1.36,3.9,5.78,5.78,0,0,0,3.94,1.2h3V23.11H61A2.4,2.4,0,0,1,59.3,22.66Z"/><path class="a" d="M77.42,8.78a10.39,10.39,0,0,0-9.54,0,8.5,8.5,0,0,0-3.36,3.34,9.86,9.86,0,0,0-1.23,5,10.13,10.13,0,0,0,1.19,5,8.48,8.48,0,0,0,3.3,3.34,9.4,9.4,0,0,0,4.7,1.18A9.94,9.94,0,0,0,77.3,25.4a8.88,8.88,0,0,0,3.45-3.35,9.72,9.72,0,0,0,1.26-5,9.86,9.86,0,0,0-1.23-5A8.5,8.5,0,0,0,77.42,8.78Zm-.1,11.7a5.41,5.41,0,0,1-2.09,2.1,5.6,5.6,0,0,1-2.75.7,5,5,0,0,1-3.81-1.62,6.43,6.43,0,0,1-1.52-4.58,7.25,7.25,0,0,1,.73-3.38,4.94,4.94,0,0,1,2-2.08,5.42,5.42,0,0,1,2.71-.7,5.56,5.56,0,0,1,2.74.7,5.15,5.15,0,0,1,2,2.08,6.89,6.89,0,0,1,.77,3.38A6.76,6.76,0,0,1,77.32,20.48Z"/><polygon class="a" points="99.25 7.92 93.98 7.92 87.31 15.95 87.31 1.62 83.51 1.62 83.51 26.28 87.31 26.28 87.31 18.38 94.11 26.28 99.25 26.28 90.78 17.12 99.25 7.92"/><polygon class="a" points="27.81 7.92 27.81 11.02 32.87 11.02 32.87 26.28 36.66 26.28 36.66 11.02 36.66 7.92 32.87 7.92 27.81 7.92"/></svg>