<svg xmlns="http://www.w3.org/2000/svg" viewBox="0 0 376.81 84.07"><defs><style>.a,.b{fill-rule:evenodd;}.b{fill:#fff;}.c{fill:#231f20;}</style></defs><title>iztok</title><path class="a" d="M25,30.61c5.95,0,11.9-.1,17.84,0q23.83.27,47.66.64c1,0,1.94.07,3,.11-.21.26-.34.43-.49.6Q72.52,55.49,52,79.05c-1.17,1.33-2.41,2.6-3.61,3.89l-.52.24c-.56-.38-.59-.8-.32-1.43Q54.79,64.41,62,47c.28-.67.59-1.33.92-2.06l-1.59-.56q-18-6.12-36-12.24c-.72-.25-1.11-.53-.83-1.33Z" transform="translate(-16.17 -2.15)"/><path class="b" d="M65.83,44.19" transform="translate(-16.17 -2.15)"/><path d="M58.2,86.22a42,42,0,1,1,42-42A42.08,42.08,0,0,1,58.2,86.22Zm0-75.49A33.46,33.46,0,1,0,91.66,44.19,33.5,33.5,0,0,0,58.2,10.73Z" transform="translate(-16.17 -2.15)"/><path class="c" d="M134.08,40.7H111.31V30.87H146.5V83.6H134.08ZM130.66,13c0-5,3.71-8.37,8.82-8.37S148.3,8,148.3,13s-3.72,8.29-8.82,8.29S130.66,18,130.66,13Z" transform="translate(-16.17 -2.15)"/><path class="c" d="M167,77,198.59,40.7h-28V30.87h45.47v6.61L184.36,73.7h32.55v9.9H167Z" transform="translate(-16.17 -2.15)"/><path class="c" d="M236.88,62.4V40.7h-14.1V31.44l14.62-.57L239,14.36H249.3V30.87h24V40.7h-24V62.35c0,8.71,3.27,12.63,12.18,12.63A32.73,32.73,0,0,0,273,72.86l2.41,9a51.52,51.52,0,0,1-16.87,3C242.37,84.88,236.88,75.83,236.88,62.4Z" transform="translate(-16.17 -2.15)"/><path class="c" d="M279.35,57.3c0-17.62,12.57-27.72,26.47-27.72S332.3,39.68,332.3,57.3s-12.58,27.58-26.48,27.58S279.35,74.78,279.35,57.3Zm40.24,0c0-10.61-5.16-17.59-13.77-17.59s-13.76,7-13.76,17.59,5.16,17.46,13.76,17.46S319.59,67.84,319.59,57.3Z" transform="translate(-16.17 -2.15)"/><path class="c" d="M340.38,7.79H352.8V55.21h.43L377,30.87h13.78L352.8,69.82V83.6H340.38Zm21.14,49.92,7.26-7.85L393,83.6H379.4Z" transform="translate(-16.17 -2.15)"/></svg>