<?xml version="1.0" encoding="utf-8"?>
<!-- Generator: Adobe Illustrator 24.0.1, SVG Export Plug-In . SVG Version: 6.00 Build 0)  -->
<svg version="1.1" id="Layer_1" xmlns="http://www.w3.org/2000/svg" xmlns:xlink="http://www.w3.org/1999/xlink" x="0px" y="0px"
	 viewBox="0 0 93.4 25.5" style="enable-background:new 0 0 93.4 25.5;" xml:space="preserve">
<title>Asset 1</title>
<g>
	<path d="M13,0.6C6.4,0.6,0.9,6,0.9,12.7S6.4,24.8,13,24.8s12.1-5.4,12.1-12.1S19.7,0.6,13,0.6z M24.9,12.6H13.2V0.9
		C19.6,1,24.8,6.2,24.9,12.6z M12.9,0.9v11.7H1.2C1.3,6.2,6.5,1,12.9,0.9z M1.2,12.9h11.7v11.7C6.5,24.5,1.3,19.3,1.2,12.9z
		 M13.2,24.6v-10h11.5C23.9,20.2,19,24.5,13.2,24.6z"/>
	<g>
		<path d="M33.1,8.7c-0.2,0-0.4,0.1-0.6,0.2c-0.2,0.2-0.2,0.4-0.2,0.6c0,0.3,0.1,0.5,0.2,0.6c0.2,0.2,0.4,0.2,0.6,0.2
			c0.2,0,0.4-0.1,0.6-0.2C33.9,10,34,9.8,34,9.5c0-0.2-0.1-0.4-0.2-0.6C33.6,8.8,33.4,8.7,33.1,8.7z"/>
		<polygon points="48,13.8 48,13 40.6,13 40.6,13.8 46.9,13.8 40.5,23.9 40.5,24.7 48.1,24.7 48.1,23.9 41.5,23.9 		"/>
		<path d="M56.4,10h-1v3h-1.8v0.8h1.8v7.8c0,1.1,0.2,1.9,0.7,2.4c0.5,0.5,1.2,0.7,2.3,0.7h1.5v-0.9h-1.3c-0.8,0-1.4-0.2-1.7-0.5
			c-0.3-0.3-0.5-0.9-0.5-1.8v-7.8h3.5V13h-3.5L56.4,10L56.4,10z"/>
		<path d="M75,13.6c-0.9-0.5-1.9-0.7-3-0.7c-1.1,0-2.1,0.2-3,0.7c-0.9,0.5-1.6,1.2-2.1,2.1c-0.5,0.9-0.8,2-0.8,3.2
			c0,1.2,0.3,2.3,0.7,3.2c0.5,0.9,1.2,1.6,2.1,2.1c0.9,0.5,1.9,0.7,3,0.7c1.1,0,2.1-0.2,3-0.7c0.9-0.5,1.6-1.2,2.1-2.1
			c0.5-0.9,0.8-2,0.8-3.2c0-1.2-0.3-2.3-0.7-3.2C76.5,14.7,75.8,14,75,13.6z M76.1,21.7c-0.4,0.8-1,1.4-1.8,1.7
			C73.6,23.8,72.8,24,72,24s-1.6-0.2-2.4-0.6s-1.3-1-1.8-1.7c-0.4-0.8-0.7-1.7-0.7-2.9c0-1.1,0.2-2.1,0.7-2.9c0.4-0.8,1-1.4,1.8-1.7
			c0.7-0.4,1.5-0.6,2.4-0.6c0.9,0,1.6,0.2,2.4,0.6c0.7,0.4,1.3,1,1.8,1.7c0.4,0.8,0.7,1.7,0.7,2.9C76.8,20,76.6,20.9,76.1,21.7z"/>
		<polygon points="86.7,18.8 92.4,13 91.1,13 86,18.3 86,8.7 85.1,8.7 85.1,24.7 86,24.7 86,19.3 91.1,24.7 92.5,24.7 		"/>
		<polygon points="33.1,13 29.6,13 29.6,13.8 32.6,13.8 32.6,24.7 33.6,24.7 33.6,13 		"/>
	</g>
</g>
</svg>
