<svg xmlns="http://www.w3.org/2000/svg" viewBox="0 0 94 25.5"><title>Logo 1-01</title><circle cx="23.7" cy="12.7" r="1.85"/><path d="M5.1,11.28A1.42,1.42,0,1,1,3.68,12.7,1.42,1.42,0,0,1,5.1,11.28m0-.43A1.85,1.85,0,1,0,6.94,12.7,1.85,1.85,0,0,0,5.1,10.85Z"/><path d="M14.4,2A1.42,1.42,0,1,1,13,3.39,1.41,1.41,0,0,1,14.4,2m0-.43A1.85,1.85,0,1,0,16.24,3.4,1.85,1.85,0,0,0,14.4,1.55Z"/><path d="M14.4,20.51A1.42,1.42,0,1,1,13,21.93a1.42,1.42,0,0,1,1.42-1.42m0-.42a1.85,1.85,0,1,0,1.84,1.84,1.84,1.84,0,0,0-1.84-1.84Z"/><path d="M41.94,23H48.4v.8H40.88V23l6.29-9.87H41v-.8h7.22v.8Z"/><path d="M56.49,13.13v7.59A2.5,2.5,0,0,0,57,22.46a2.25,2.25,0,0,0,1.64.48h1.29v.84H58.46a3,3,0,0,1-2.21-.71,3.24,3.24,0,0,1-.71-2.35V13.13H53.81v-.82h1.73V9.39h1v2.92h3.4v.82Z"/><path d="M67.79,23.23a5.14,5.14,0,0,1-2-2.06A6.41,6.41,0,0,1,65,18a6.37,6.37,0,0,1,.74-3.12,5,5,0,0,1,2-2.05,6.28,6.28,0,0,1,5.8,0,5,5,0,0,1,2,2A6.49,6.49,0,0,1,76.36,18a6.41,6.41,0,0,1-.73,3.13,5.25,5.25,0,0,1-2,2.06,5.92,5.92,0,0,1-2.91.72A5.82,5.82,0,0,1,67.79,23.23ZM73,22.54a4.28,4.28,0,0,0,1.74-1.69A5.56,5.56,0,0,0,75.42,18a5.49,5.49,0,0,0-.66-2.79A4.16,4.16,0,0,0,73,13.55,5,5,0,0,0,70.7,13a4.93,4.93,0,0,0-2.31.56,4.2,4.2,0,0,0-1.72,1.7A5.49,5.49,0,0,0,66,18a5.56,5.56,0,0,0,.65,2.81,4.15,4.15,0,0,0,1.71,1.69,4.81,4.81,0,0,0,2.31.56A5,5,0,0,0,73,22.54Z"/><path d="M88.32,23.78l-5-5.26v5.26h-1V8.15h1v9.36l4.92-5.2h1.33L84,18l5.62,5.76Z"/><polygon points="33.8 12.31 33.23 12.31 29.68 12.31 29.68 13.26 33.23 13.26 33.23 23.78 34.18 23.78 34.18 12.31 33.8 12.31"/><path d="M33.72,9.75a.77.77,0,0,0,.8-.82.85.85,0,0,0-.23-.6.81.81,0,0,0-.57-.23.78.78,0,0,0-.57.23.81.81,0,0,0-.23.6.77.77,0,0,0,.8.82Z"/></svg>