<?xml version="1.0" encoding="utf-8"?>
<!-- Generator: Adobe Illustrator 24.0.1, SVG Export Plug-In . SVG Version: 6.00 Build 0)  -->
<svg version="1.1" id="Layer_1" xmlns="http://www.w3.org/2000/svg" xmlns:xlink="http://www.w3.org/1999/xlink" x="0px" y="0px"
	 viewBox="0 0 94 25.5" style="enable-background:new 0 0 94 25.5;" xml:space="preserve">
<title>Asset 1</title>
<g>
	<g>
		<circle cx="23.6" cy="12.7" r="1.9"/>
	</g>
	<g>
		<path d="M4.9,11.3c0.8,0,1.4,0.6,1.4,1.4s-0.6,1.4-1.4,1.4s-1.4-0.6-1.4-1.4C3.5,11.9,4.2,11.3,4.9,11.3 M4.9,10.8
			c-1,0-1.9,0.8-1.9,1.9c0,1,0.8,1.9,1.9,1.9c1,0,1.9-0.8,1.9-1.9C6.8,11.6,6,10.8,4.9,10.8L4.9,10.8z"/>
	</g>
	<g>
		<path d="M14.3,1.9c0.8,0,1.4,0.6,1.4,1.4s-0.6,1.4-1.4,1.4c-0.8,0-1.4-0.6-1.4-1.4S13.5,1.9,14.3,1.9 M14.3,1.5
			c-1,0-1.9,0.8-1.9,1.9c0,1,0.8,1.9,1.9,1.9c1,0,1.9-0.8,1.9-1.9S15.3,1.5,14.3,1.5L14.3,1.5z"/>
	</g>
	<g>
		<path d="M14.3,20.6c0.8,0,1.4,0.6,1.4,1.4c0,0.8-0.6,1.4-1.4,1.4c-0.8,0-1.4-0.6-1.4-1.4S13.5,20.6,14.3,20.6 M14.3,20.1
			c-1,0-1.9,0.8-1.9,1.9c0,1,0.8,1.9,1.9,1.9c1,0,1.9-0.8,1.9-1.9C16.1,20.9,15.3,20.1,14.3,20.1L14.3,20.1z"/>
	</g>
	<path d="M43.3,23.1h6.6V24h-7.6v-0.8l6.4-10h-6.2v-0.8h7.2v0.8L43.3,23.1z"/>
	<path d="M58.1,13.1v7.7c0,0.8,0.2,1.5,0.5,1.8c0.3,0.3,0.8,0.5,1.7,0.5h1.3v0.8H60c-1,0-1.8-0.3-2.2-0.7c-0.5-0.5-0.7-1.3-0.7-2.4
		V13h-1.8v-0.8h1.8V9.3H58v3h3.4v0.8H58.1z"/>
	<path d="M69.6,23.3c-0.8-0.5-1.6-1.2-2-2c-0.5-0.9-0.7-1.9-0.7-3.1c0-1.2,0.3-2.2,0.7-3.1c0.5-0.9,1.2-1.6,2-2
		c0.8-0.5,1.9-0.7,3-0.7s2,0.3,3,0.7c0.8,0.5,1.6,1.2,2,2c0.5,0.9,0.7,1.9,0.7,3.1c0,1.2-0.3,2.2-0.7,3.1c-0.5,0.9-1.2,1.6-2,2
		s-1.9,0.7-3,0.7S70.5,23.9,69.6,23.3z M74.8,22.7c0.7-0.4,1.3-0.9,1.8-1.8c0.5-0.7,0.6-1.8,0.6-2.9c0-1.1-0.2-2-0.6-2.8
		s-1-1.4-1.8-1.8c-0.7-0.4-1.5-0.6-2.3-0.6c-0.8,0-1.6,0.2-2.3,0.6c-0.7,0.4-1.3,0.9-1.8,1.8C68,16,67.8,16.9,67.8,18
		c0,1.1,0.2,2,0.6,2.9c0.5,0.7,1,1.4,1.8,1.8c0.7,0.4,1.5,0.6,2.3,0.6C73.4,23.2,74.1,23,74.8,22.7z"/>
	<path d="M89.7,23.9l-5.1-5.3v5.3h-0.9V8.1h0.9v9.4l5-5.3H91L85.3,18l5.6,5.8H89.7L89.7,23.9z"/>
	<polygon points="35.1,12.3 34.5,12.3 30.9,12.3 30.9,13.2 34.5,13.2 34.5,23.9 35.5,23.9 35.5,12.3 	"/>
	<path d="M35,9.7c0.2,0,0.5-0.1,0.6-0.2c0.2-0.2,0.3-0.4,0.3-0.6s-0.1-0.5-0.3-0.6C35.4,8.1,35.2,8,35,8s-0.5,0.1-0.6,0.3
		c-0.2,0.2-0.3,0.4-0.3,0.6c0,0.3,0.1,0.5,0.3,0.6C34.6,9.6,34.8,9.7,35,9.7z"/>
</g>
</svg>
