<?xml version="1.0" encoding="utf-8"?>
<!-- Generator: Adobe Illustrator 24.0.1, SVG Export Plug-In . SVG Version: 6.00 Build 0)  -->
<svg version="1.1" id="Layer_1" xmlns="http://www.w3.org/2000/svg" xmlns:xlink="http://www.w3.org/1999/xlink" x="0px" y="0px"
	 viewBox="0 0 99.8 25.5" style="enable-background:new 0 0 99.8 25.5;" xml:space="preserve">
<title>Asset 1</title>
<g>
	<g>
		<circle cx="23.3" cy="12.8" r="2.1"/>
	</g>
	<g>
		<path d="M2.3,11.2c0.9,0,1.6,0.7,1.6,1.6s-0.7,1.6-1.6,1.6s-1.6-0.7-1.6-1.6C0.7,11.9,1.5,11.2,2.3,11.2 M2.3,10.7
			c-1.1,0-2.1,0.9-2.1,2.1c0,1.1,0.9,2.1,2.1,2.1c1.1,0,2.1-0.9,2.1-2.1C4.4,11.6,3.5,10.7,2.3,10.7L2.3,10.7z"/>
	</g>
	<g>
		<path d="M12.8,0.7c0.9,0,1.6,0.7,1.6,1.6s-0.7,1.6-1.6,1.6c-0.9,0-1.6-0.7-1.6-1.6S11.9,0.7,12.8,0.7 M12.8,0.2
			c-1.1,0-2.1,0.9-2.1,2.1c0,1.1,0.9,2.1,2.1,2.1c1.1,0,2.1-0.9,2.1-2.1C14.9,1.1,14,0.2,12.8,0.2L12.8,0.2z"/>
	</g>
	<g>
		<path d="M12.8,21.6c0.9,0,1.6,0.7,1.6,1.6c0,0.9-0.7,1.6-1.6,1.6c-0.9,0-1.6-0.7-1.6-1.6C11.2,22.3,11.9,21.6,12.8,21.6
			 M12.8,21.1c-1.1,0-2.1,0.9-2.1,2.1c0,1.1,0.9,2.1,2.1,2.1c1.1,0,2.1-0.9,2.1-2.1C14.9,22,14,21.1,12.8,21.1L12.8,21.1z"/>
	</g>
	<path d="M45.1,24.5h7.1v0.9h-8.2v-0.9l6.9-10.8h-6.7v-0.9H52v0.9L45.1,24.5z"/>
	<path d="M61,13.7V22c0,0.9,0.2,1.6,0.5,1.9c0.3,0.3,0.9,0.5,1.8,0.5h1.4v0.9h-1.6c-1.1,0-1.9-0.3-2.4-0.8s-0.8-1.4-0.8-2.6v-8.3
		h-1.9v-0.9h1.9V9.6h1v3.2h3.7v0.9H61z"/>
	<path d="M74.4,24.7c-0.9-0.5-1.7-1.3-2.2-2.2c-0.5-1-0.8-2.1-0.8-3.4c0-1.3,0.3-2.4,0.8-3.4c0.5-1,1.3-1.7,2.2-2.2s2-0.8,3.2-0.8
		s2.2,0.3,3.2,0.8c0.9,0.5,1.7,1.3,2.2,2.2c0.5,1,0.8,2.1,0.8,3.4c0,1.3-0.3,2.4-0.8,3.4s-1.3,1.7-2.2,2.2c-0.9,0.5-2,0.8-3.2,0.8
		C76.4,25.5,75.4,25.3,74.4,24.7z M80.1,24c0.8-0.4,1.4-1,1.9-1.9c0.5-0.8,0.7-1.9,0.7-3.1c0-1.2-0.2-2.2-0.7-3
		c-0.5-0.8-1.1-1.5-1.9-1.9c-0.8-0.4-1.6-0.6-2.5-0.6c-0.9,0-1.7,0.2-2.5,0.6s-1.4,1-1.9,1.9c-0.5,0.8-0.7,1.8-0.7,3
		c0,1.2,0.2,2.2,0.7,3.1c0.5,0.8,1.1,1.5,1.9,1.9c0.8,0.4,1.6,0.6,2.5,0.6C78.5,24.6,79.3,24.4,80.1,24z"/>
	<path d="M98.1,25.3l-5.5-5.7v5.7h-1V8.3h1v10.2l5.4-5.7h1.5L93.4,19l6.1,6.3L98.1,25.3L98.1,25.3z"/>
	<polygon points="36.2,12.8 35.6,12.8 31.7,12.8 31.7,13.8 35.6,13.8 35.6,25.3 36.6,25.3 36.6,12.8 	"/>
	<path d="M36.1,10c0.2,0,0.5-0.1,0.6-0.2C36.9,9.6,37,9.4,37,9.1c0-0.3-0.1-0.5-0.3-0.6c-0.2-0.2-0.4-0.3-0.6-0.3s-0.5,0.1-0.6,0.3
		c-0.2,0.2-0.3,0.4-0.3,0.6c0,0.3,0.1,0.5,0.3,0.7C35.7,9.9,35.9,10,36.1,10z"/>
</g>
</svg>
