<?xml version="1.0" encoding="utf-8"?>
<!-- Generator: Adobe Illustrator 24.0.1, SVG Export Plug-In . SVG Version: 6.00 Build 0)  -->
<svg version="1.1" id="Layer_1" xmlns="http://www.w3.org/2000/svg" xmlns:xlink="http://www.w3.org/1999/xlink" x="0px" y="0px"
	 viewBox="0 0 99.8 25.5" style="enable-background:new 0 0 99.8 25.5;" xml:space="preserve">
<style type="text/css">
	.st0{fill:#FFFFFF;stroke:#000000;stroke-width:1.2;stroke-miterlimit:10;}
</style>
<title>Asset 1</title>
<g>
	<circle class="st0" cx="11.7" cy="12.4" r="11"/>
	<circle cx="22.7" cy="12.5" r="3.2"/>
	<g>
		<path d="M35.2,14.1h-5.4v-1.6h7.4v11.7h-2V14.1z M34.4,8.5c0-0.9,0.7-1.5,1.6-1.5s1.6,0.6,1.6,1.5c0,0.9-0.7,1.5-1.6,1.5
			S34.4,9.4,34.4,8.5z"/>
		<path d="M43.7,23.1l8-9h-7.1v-1.6h9.9v1.1l-8,9h8.2v1.6h-11V23.1z"/>
		<path d="M61.4,24.1V14.1h-3.3v-1.6l3.3,0V8.7h2v3.7h5.7v1.6h-5.7v5.5v4.5H61.4z"/>
		<path d="M72.2,18.3c0-3.7,2.9-5.8,5.8-5.8c2.9,0,5.8,2.1,5.8,5.8c0,3.7-2.9,5.8-5.8,5.8C75.1,24.1,72.2,22,72.2,18.3z M81.9,18.3
			c0-2.6-1.7-4.2-3.9-4.2c-2.1,0-3.9,1.7-3.9,4.2c0,2.5,1.7,4.2,3.9,4.2C80.2,22.5,81.9,20.9,81.9,18.3z"/>
		<path d="M87.8,7h2v11.6h0.1l6.3-6.1h2.3L89.8,21v3.2h-2L87.8,7L87.8,7z M92.3,17.9l1.2-1.3l5.6,7.5h-2.2L92.3,17.9z"/>
	</g>
</g>
</svg>
